# xmcd
#
# Track frame offsets: 
#        150
#        12865
#        23838
#        34369
#        48068
#        59800
#        72665
#        83995
#        95480
#        107346
#        117644
#        129456
#        139327
#        149226
#        160803
#        173487
#        184928
#        193859
#        205536
#        217930
#        230547
#        241778
#        253390
#        263951
#        273480
#        283912
#        293793
#        303925
#
# Disc length: 4189 seconds
#
# Revision: 1
# Processed by: cddbd v1.5.2PL0 Copyright (c) Steve Scherf et al.
# Submitted via: ExactAudioCopyFreeDBPlugin 1.0
#
DISCID=b2105b1c
DTITLE=Various Artist - Jump Blues Jamaica Way:  Jamaican Sound Syste
DTITLE=m Classics, 1945-1960
DYEAR=2014
DGENRE=Rhythm and Blues
TTITLE0=Clyde McPhatter and The Drifters - What'Cha Gonna Do
TTITLE1=The Penguins - Don't Do It
TTITLE2=Smiley Lewis - One Night
TTITLE3=The Cliques - The Girl in My Dreams
TTITLE4=The Cookies - In Paradise
TTITLE5=Vernon Green and The Medallions - Pushbutton Automobile
TTITLE6=Chuck Higgins - Gambling Woman
TTITLE7=Sugar and Spice - Hey Joe (Let Me Know)
TTITLE8=Shirley and Lee - That's What I'll Do
TTITLE9=Bobbie and Ronald - You're Mine Oh Mine
TTITLE10=Smiley Lewis - Queen of Hearts
TTITLE11=Louis Prima - 5 Months, 2 Weeks, 2 Days
TTITLE12=Professor Longhair - No Buts - No Maybes
TTITLE13=Chris Kenner - Sick and Tired
TTITLE14=Lloyd Price - Just Because
TTITLE15=Gene and Eunice - The Vow
TTITLE16=Ernie Freeman - Indian Love
TTITLE17=Bill Doggett - Boo Da Ba
TTITLE18=The Howards - Mimi Girl
TTITLE19=Huey "Piano" Smith - High Blood Pressure
TTITLE20=Terry and Jerry - Mama Julie
TTITLE21=Professor Longhair - Cuttin' Out
TTITLE22=Bobby Davis - I Was Wrong
TTITLE23=Dave "Baby" Cortez - Piano Shuffle
TTITLE24=Fats Domino - Be My Guest
TTITLE25=Jimmy Beck - Pipe Dreams
TTITLE26=Wilbert Harrison - C.C. Rider
TTITLE27=The Merri-Men - Big Daddy
EXTD=
EXTT0=
EXTT1=
EXTT2=
EXTT3=
EXTT4=
EXTT5=
EXTT6=
EXTT7=
EXTT8=
EXTT9=
EXTT10=
EXTT11=
EXTT12=
EXTT13=
EXTT14=
EXTT15=
EXTT16=
EXTT17=
EXTT18=
EXTT19=
EXTT20=
EXTT21=
EXTT22=
EXTT23=
EXTT24=
EXTT25=
EXTT26=
EXTT27=
PLAYORDER=
